<?xml version="1.0" standalone="no"?>
<!DOCTYPE svg PUBLIC "-//W3C//DTD SVG 20010904//EN"
 "http://www.w3.org/TR/2001/REC-SVG-20010904/DTD/svg10.dtd">
<svg version="1.0" xmlns="http://www.w3.org/2000/svg"
 width="2560.000000pt" height="1725.000000pt" viewBox="0 0 2560.000000 1725.000000"
 preserveAspectRatio="xMidYMid meet">

<g transform="translate(0.000000,1725.000000) scale(0.100000,-0.100000)"
fill="#000000" stroke="none">
<path d="M13382 16165 c-1036 -595 -1883 -1086 -1883 -1091 0 -5 1183 -2064
2628 -4576 l2628 -4567 2528 -1 c2116 0 2528 2 2525 13 -4 20 -6532 11306
-6538 11306 -3 -1 -852 -488 -1888 -1084z"/>
<path d="M9076 12199 c-1028 -593 -1878 -1084 -1888 -1091 -19 -12 68 -165
1476 -2595 l1496 -2582 0 -536 0 -535 535 0 535 0 0 535 0 535 1979 2 1979 3
-2117 3667 c-1165 2017 -2119 3670 -2122 3672 -2 2 -845 -482 -1873 -1075z"/>
<path d="M4629 8309 c-1036 -599 -1885 -1092 -1887 -1097 -1 -4 162 -293 362
-642 l363 -635 2523 -3 c2338 -2 2522 -1 2516 14 -7 17 -1960 3406 -1980 3436
-11 15 -223 -105 -1897 -1073z"/>
<path d="M8548 5021 l-3 -909 -80 50 c-236 147 -505 249 -790 299 -151 27
-510 37 -666 19 -656 -75 -1241 -420 -1614 -951 -88 -125 -207 -351 -260 -493
-189 -510 -183 -1099 16 -1598 306 -768 1008 -1318 1817 -1422 160 -21 434
-21 591 0 301 39 610 147 885 308 52 31 97 56 100 56 3 0 6 -63 6 -140 l0
-140 535 0 535 0 0 2915 0 2915 -535 0 -535 0 -2 -909z m-1027 -1537 c424 -80
806 -411 954 -824 47 -132 67 -251 67 -400 1 -198 -35 -357 -119 -528 -210
-430 -656 -712 -1127 -712 -580 0 -1082 386 -1233 947 -25 90 -27 114 -27 288
0 173 3 199 26 286 141 521 568 894 1098 959 94 11 257 4 361 -16z"/>
<path d="M15218 5021 l-3 -910 -70 46 c-190 124 -480 240 -718 288 -353 70
-749 61 -1082 -26 -789 -204 -1415 -834 -1609 -1618 -142 -573 -53 -1185 244
-1685 349 -585 902 -966 1590 -1093 135 -25 580 -25 725 0 303 53 588 157 828
303 49 30 90 54 93 54 2 0 4 -63 4 -140 l0 -140 530 0 530 0 0 2915 0 2915
-530 0 -530 0 -2 -909z m-1014 -1542 c433 -88 810 -422 951 -843 48 -144 58
-211 58 -386 0 -152 -2 -174 -31 -285 -200 -764 -1071 -1168 -1764 -819 -431
217 -700 643 -700 1109 0 344 134 651 392 899 305 293 690 407 1094 325z"/>
<path d="M1985 4479 c-772 -103 -1418 -559 -1753 -1237 -235 -475 -292 -1017
-162 -1533 201 -800 840 -1438 1644 -1644 179 -45 344 -65 550 -65 450 0 859
114 1222 342 34 21 64 38 68 38 3 0 6 -63 6 -140 l0 -140 530 0 530 0 -2 2178
-3 2177 -527 3 -528 2 -2 -174 -3 -175 -61 39 c-235 149 -520 258 -814 310
-102 18 -171 23 -375 26 -137 1 -281 -2 -320 -7z m533 -994 c251 -48 478 -170
667 -360 244 -244 367 -534 368 -865 0 -201 -36 -359 -124 -535 -137 -278
-394 -510 -691 -625 -181 -71 -446 -98 -639 -66 -459 75 -853 408 -999 844
-146 435 -26 918 311 1253 203 203 468 335 740 368 93 12 264 5 367 -14z"/>
<path d="M18660 4483 c-268 -29 -590 -127 -820 -250 -211 -113 -372 -233 -546
-407 -344 -345 -555 -767 -630 -1261 -23 -152 -23 -471 0 -620 117 -748 566
-1370 1231 -1707 229 -116 469 -191 713 -222 157 -20 434 -21 589 -1 308 40
637 155 896 316 43 27 80 49 83 49 2 0 4 -63 4 -140 l0 -140 540 0 540 0 -2
2178 -3 2177 -537 3 -538 2 0 -175 0 -175 -67 44 c-258 166 -584 282 -903 321
-113 14 -451 19 -550 8z m510 -999 c234 -48 436 -155 614 -325 347 -331 479
-819 341 -1259 -165 -525 -643 -880 -1186 -880 -469 0 -911 278 -1124 708 -91
184 -120 317 -119 537 1 149 4 182 26 265 66 248 170 431 342 603 207 208 483
339 781 371 67 7 246 -4 325 -20z"/>
<path d="M23233 4475 c-702 -89 -1217 -449 -1393 -973 -82 -244 -83 -536 -4
-787 77 -242 244 -467 443 -599 254 -167 594 -263 1375 -386 511 -81 668 -145
746 -304 26 -52 32 -76 31 -129 -1 -207 -198 -400 -476 -468 -72 -18 -119 -22
-235 -22 -525 0 -861 230 -905 621 l-7 62 -565 0 -566 0 7 -83 c4 -46 17 -131
31 -189 149 -663 727 -1104 1575 -1202 177 -21 543 -21 736 -1 658 69 1126
309 1371 703 196 314 258 788 147 1121 -114 343 -426 623 -862 775 -184 64
-385 108 -852 186 -298 50 -458 83 -564 117 -253 80 -376 194 -376 350 0 90
31 165 94 229 122 121 334 171 684 161 194 -5 282 -22 389 -74 68 -33 162
-117 196 -176 36 -61 66 -166 73 -257 l7 -80 548 0 c319 0 549 4 549 9 0 5 -9
61 -20 124 -116 679 -632 1138 -1420 1263 -146 23 -603 28 -757 9z"/>
<path d="M10160 2275 l0 -2175 535 0 535 0 0 2175 0 2175 -535 0 -535 0 0
-2175z"/>
</g>
</svg>
