{
  "accessors": [
    {
      "bufferView": 2,
      "componentType": 5126,
      "count": 65532,
      "max": [
        0.03778295964002609,
        -0.26283517479896545,
        -0.1081153154373169
      ],
      "min": [
        -0.08884408324956894,
        -0.4004758596420288,
        -0.41918689012527466
      ],
      "type": "VEC3"
    },
    {
      "bufferView": 2,
      "byteOffset": 786384,
      "componentType": 5126,
      "count": 65532,
      "max": [
        0.9999438524246216,
        0.9999940991401672,
        0.9999359250068665
      ],
      "min": [
        -0.9999993443489075,
        -0.9999855160713196,
        -0.9999632835388184
      ],
      "type": "VEC3"
    },
    {
      "bufferView": 1,
      "componentType": 5126,
      "count": 65532,
      "max": [
        0.998982310295105,
        0.998954176902771
      ],
      "min": [
        0.0009765625,
        0.06738293170928955
      ],
      "type": "VEC2"
    },
    {
      "bufferView": 0,
      "componentType": 5125,
      "count": 277251,
      "type": "SCALAR"
    },
    {
      "bufferView": 2,
      "byteOffset": 1572768,
      "componentType": 5126,
      "count": 65533,
      "max": [
        0.03804725036025047,
        -0.2631603479385376,
        -0.1081153154373169
      ],
      "min": [
        -0.08485548198223114,
        -0.4004313051700592,
        -0.41515052318573
      ],
      "type": "VEC3"
    },
    {
      "bufferView": 2,
      "byteOffset": 2359164,
      "componentType": 5126,
      "count": 65533,
      "max": [
        0.9999830722808838,
        0.9999805688858032,
        0.9999160766601563
      ],
      "min": [
        -0.9999794363975525,
        -0.9999995231628418,
        -0.9998448491096497
      ],
      "type": "VEC3"
    },
    {
      "bufferView": 1,
      "byteOffset": 524256,
      "componentType": 5126,
      "count": 65533,
      "max": [
        0.9990188479423523,
        0.9990230798721313
      ],
      "min": [
        0.0009765625,
        0.06347668170928955
      ],
      "type": "VEC2"
    },
    {
      "bufferView": 0,
      "byteOffset": 1109004,
      "componentType": 5125,
      "count": 209112,
      "type": "SCALAR"
    },
    {
      "bufferView": 2,
      "byteOffset": 3145560,
      "componentType": 5126,
      "count": 5113,
      "max": [
        0.021702829748392105,
        -0.3249248266220093,
        -0.1286023110151291
      ],
      "min": [
        -0.050081007182598114,
        -0.3980973958969116,
        -0.3419979214668274
      ],
      "type": "VEC3"
    },
    {
      "bufferView": 2,
      "byteOffset": 3206916,
      "componentType": 5126,
      "count": 5113,
      "max": [
        0.9994329810142517,
        0.9997466206550598,
        0.9959584474563599
      ],
      "min": [
        -0.9999849796295166,
        -0.9999854564666748,
        -0.9971010684967041
      ],
      "type": "VEC3"
    },
    {
      "bufferView": 1,
      "byteOffset": 1048520,
      "componentType": 5126,
      "count": 5113,
      "max": [
        0.9987550377845764,
        0.9989144206047058
      ],
      "min": [
        0.0009765625,
        0.06738293170928955
      ],
      "type": "VEC2"
    },
    {
      "bufferView": 0,
      "byteOffset": 1945452,
      "componentType": 5125,
      "count": 11805,
      "type": "SCALAR"
    }
  ],
  "asset": {
    "extras": {
      "author": "alban (https://sketchfab.com/alban)",
      "license": "CC-BY-4.0 (http://creativecommons.org/licenses/by/4.0/)",
      "source": "https://sketchfab.com/3d-models/new-balance-nb-574-captured-with-realityscan-cc96b92e46f94cda9e9d410656e38ea7",
      "title": "New Balance NB 574 captured with RealityScan"
    },
    "generator": "Sketchfab-12.87.0",
    "version": "2.0"
  },
  "bufferViews": [
    {
      "buffer": 0,
      "byteLength": 1992672,
      "name": "floatBufferViews",
      "target": 34963
    },
    {
      "buffer": 0,
      "byteLength": 1089424,
      "byteOffset": 1992672,
      "byteStride": 8,
      "name": "floatBufferViews",
      "target": 34962
    },
    {
      "buffer": 0,
      "byteLength": 3268272,
      "byteOffset": 3082096,
      "byteStride": 12,
      "name": "floatBufferViews",
      "target": 34962
    }
  ],
  "buffers": [
    {
      "byteLength": 6350368,
      "uri": "scene.bin"
    }
  ],
  "extensionsUsed": [
    "KHR_materials_unlit"
  ],
  "images": [
    {
      "uri": "textures/default_tex0_baseColor.jpeg"
    }
  ],
  "materials": [
    {
      "extensions": {
        "KHR_materials_unlit": {}
      },
      "name": "default_tex0",
      "pbrMetallicRoughness": {
        "baseColorTexture": {
          "index": 0
        },
        "metallicFactor": 0.0
      }
    }
  ],
  "meshes": [
    {
      "name": "Object_0",
      "primitives": [
        {
          "attributes": {
            "NORMAL": 1,
            "POSITION": 0,
            "TEXCOORD_0": 2
          },
          "indices": 3,
          "material": 0,
          "mode": 4
        }
      ]
    },
    {
      "name": "Object_1",
      "primitives": [
        {
          "attributes": {
            "NORMAL": 5,
            "POSITION": 4,
            "TEXCOORD_0": 6
          },
          "indices": 7,
          "material": 0,
          "mode": 4
        }
      ]
    },
    {
      "name": "Object_2",
      "primitives": [
        {
          "attributes": {
            "NORMAL": 9,
            "POSITION": 8,
            "TEXCOORD_0": 10
          },
          "indices": 11,
          "material": 0,
          "mode": 4
        }
      ]
    }
  ],
  "nodes": [
    {
      "children": [
        1
      ],
      "matrix": [
        0.9804727159162923,
        0.06214843015762472,
        -0.0018943052634202706,
        0.0,
        -2.1303320648085487e-19,
        -0.029931273995548183,
        -0.9819862091351013,
        0.0,
        -0.06217729199195965,
        0.9800176021928309,
        -0.029871270220006577,
        0.0,
        0.0,
        0.0,
        0.0,
        1.0
      ],
      "name": "Sketchfab_model"
    },
    {
      "children": [
        2
      ],
      "name": "root"
    },
    {
      "children": [
        3
      ],
      "matrix": [
        1.0,
        0.0,
        0.0,
        0.0,
        0.0,
        2.220446049250313e-16,
        1.0,
        0.0,
        0.0,
        -1.0,
        2.220446049250313e-16,
        0.0,
        0.0,
        0.0,
        0.0,
        1.0
      ],
      "name": "GLTF_SceneRootNode"
    },
    {
      "children": [
        4,
        5,
        6
      ],
      "name": "_0"
    },
    {
      "mesh": 0,
      "name": "Object_4"
    },
    {
      "mesh": 1,
      "name": "Object_5"
    },
    {
      "mesh": 2,
      "name": "Object_6"
    }
  ],
  "samplers": [
    {
      "magFilter": 9729,
      "minFilter": 9729,
      "wrapS": 33071,
      "wrapT": 33071
    }
  ],
  "scene": 0,
  "scenes": [
    {
      "name": "Sketchfab_Scene",
      "nodes": [
        0
      ]
    }
  ],
  "textures": [
    {
      "sampler": 0,
      "source": 0
    }
  ]
}
